<?xml version="1.0" standalone="no"?>
<!DOCTYPE svg PUBLIC "-//W3C//DTD SVG 20010904//EN"
 "http://www.w3.org/TR/2001/REC-SVG-20010904/DTD/svg10.dtd">
<svg version="1.0" xmlns="http://www.w3.org/2000/svg"
 width="250.000000pt" height="250.000000pt" viewBox="0 0 250.000000 250.000000"
 preserveAspectRatio="xMidYMid meet">
<metadata>
Created by potrace 1.14, written by Peter Selinger 2001-2017
</metadata>
<g transform="translate(0.000000,250.000000) scale(0.100000,-0.100000)"
fill="#000000" stroke="none">
<path d="M0 1250 l0 -1250 1250 0 1250 0 0 1250 0 1250 -1250 0 -1250 0 0
-1250z m1330 123 l1 -178 88 93 89 93 55 -3 56 -3 -71 -78 -71 -78 77 -114
c42 -63 76 -117 76 -120 0 -3 -26 -5 -57 -3 l-57 3 -55 88 -55 89 -38 -41
c-34 -35 -38 -46 -38 -91 l0 -50 -50 0 -50 0 0 285 0 285 50 0 50 0 0 -177z
m-770 108 c49 -26 72 -62 78 -119 6 -67 -18 -117 -70 -143 -25 -13 -36 -24
-32 -32 4 -7 33 -50 64 -97 31 -47 60 -91 64 -97 5 -10 -7 -13 -52 -13 l-60 0
-55 93 c-31 52 -63 99 -71 106 -8 7 -34 11 -58 9 l-43 -3 -3 -102 -3 -103 -49
0 -50 0 0 260 0 260 153 0 c129 0 158 -3 187 -19z m475 -124 c72 -40 109 -142
86 -234 -25 -99 -86 -143 -197 -143 -127 0 -199 73 -198 201 2 130 72 199 203
199 50 0 76 -6 106 -23z m920 9 c60 -25 75 -64 75 -193 0 -97 2 -114 18 -121
9 -5 23 -7 31 -4 10 3 12 0 8 -12 -4 -10 -7 -26 -7 -37 0 -16 -7 -19 -51 -19
-40 0 -55 5 -71 24 l-21 23 -35 -23 c-47 -32 -147 -34 -185 -4 -53 42 -43 136
17 167 17 9 67 24 111 33 70 14 80 19 83 39 5 34 -34 71 -76 71 -25 0 -41 -8
-63 -31 -27 -29 -29 -30 -69 -18 -22 7 -40 14 -40 17 0 17 39 63 69 81 44 25
153 29 206 7z m315 -286 c43 -43 15 -100 -49 -100 -46 0 -61 14 -61 56 0 57
69 85 110 44z"/>
<path d="M322 1343 l3 -78 82 0 c99 1 123 16 123 77 0 63 -24 78 -125 78 l-86
0 3 -77z"/>
<path d="M877 1299 c-64 -37 -62 -204 2 -239 11 -5 32 -10 46 -10 67 0 99 52
93 148 -4 55 -8 68 -32 88 -29 25 -78 31 -109 13z"/>
<path d="M1845 1139 c-45 -10 -67 -33 -58 -57 9 -25 24 -32 65 -32 42 0 78 35
78 76 0 27 -15 29 -85 13z"/>
</g>
</svg>
